<?xml version="1.0" encoding="iso-8859-1"?>
<!-- Generator: Adobe Illustrator 19.0.0, SVG Export Plug-In . SVG Version: 6.00 Build 0)  -->
<svg version="1.1" id="Layer_1" xmlns="http://www.w3.org/2000/svg" xmlns:xlink="http://www.w3.org/1999/xlink" x="0px" y="0px"
	 viewBox="0 0 511.473 511.473" style="enable-background:new 0 0 511.473 511.473;" xml:space="preserve">
<path style="fill:#021F02;" d="M491.87,231.051c11.726,2.742,19.603,12.654,19.603,24.686s-7.877,21.944-19.603,24.686
	c-21.934,5.114-44.458,8.099-67.14,8.932c20.637,9.448,40.313,20.826,58.609,33.944c9.786,7.012,13.266,19.192,8.668,30.306
	c-4.039,9.733-13.034,15.659-23.188,15.659c-1.434,0-2.9-0.116-4.366-0.359c-22.218-3.67-44.183-9.533-65.453-17.441
	c15.448,16.629,29.273,34.672,41.157,53.79c6.359,10.229,4.914,22.809-3.585,31.319c-4.977,4.967-11.336,7.529-17.81,7.529
	c-4.598,0-9.258-1.297-13.508-3.944c-19.118-11.884-37.16-25.709-53.79-41.157c7.909,21.28,13.772,43.234,17.441,65.453
	c1.961,11.874-4.186,22.946-15.301,27.554c-3.269,1.35-6.633,2.004-9.923,2.004c-7.909,0-15.438-3.765-20.383-10.671
	c-13.118-18.306-24.496-37.972-33.944-58.609c-0.833,22.682-3.817,45.206-8.932,67.14c-1.371,5.863-4.534,10.766-8.858,14.204
	c-4.323,3.427-9.817,5.399-15.828,5.399c-12.032,0-21.944-7.877-24.686-19.603c-5.114-21.934-8.099-44.458-8.932-67.14
	c-9.448,20.637-20.826,40.303-33.944,58.609c-4.946,6.907-12.475,10.671-20.383,10.671c-3.29,0-6.654-0.654-9.923-2.004
	c-11.114-4.608-17.262-15.68-15.301-27.554c3.67-22.218,9.533-44.183,17.441-65.453c-16.629,15.448-34.672,29.273-53.79,41.157
	c-4.25,2.647-8.91,3.944-13.508,3.944c-6.475,0-12.833-2.562-17.81-7.529c-8.499-8.51-9.944-21.09-3.585-31.319
	c11.884-19.118,25.709-37.16,41.157-53.79c-21.28,7.909-43.234,13.772-65.453,17.441c-1.466,0.243-2.931,0.359-4.366,0.359
	c-10.155,0-19.15-5.926-23.188-15.659c-4.598-11.114-1.118-23.294,8.668-30.306c18.306-13.118,37.972-24.496,58.609-33.944
	c-22.682-0.833-45.206-3.817-67.14-8.932C7.877,277.68,0,267.768,0,255.736c0-12.032,7.877-21.944,19.603-24.686
	c21.934-5.114,44.458-8.099,67.14-8.932c-20.636-9.448-40.303-20.826-58.609-33.944c-9.786-7.012-13.266-19.192-8.668-30.306
	c4.608-11.114,15.68-17.262,27.554-15.301c22.218,3.67,44.183,9.533,65.453,17.441c-15.448-16.629-29.273-34.672-41.157-53.79
	c-6.359-10.229-4.914-22.809,3.585-31.319c8.51-8.499,21.09-9.944,31.319-3.585c19.118,11.884,37.16,25.709,53.79,41.157
	c-7.909-21.269-13.772-43.234-17.441-65.453c-1.961-11.874,4.186-22.946,15.301-27.554c11.114-4.598,23.294-1.118,30.306,8.668
	c13.118,18.306,24.496,37.972,33.944,58.609c0.833-22.682,3.817-45.206,8.932-67.14C233.792,7.877,243.705,0,255.736,0
	c12.032,0,21.944,7.877,24.686,19.603c5.114,21.934,8.099,44.458,8.932,67.14c9.448-20.636,20.826-40.303,33.944-58.609
	c7.012-9.786,19.192-13.266,30.306-8.668c11.114,4.608,17.262,15.68,15.301,27.554c-3.67,22.218-9.533,44.173-17.441,65.453
	c16.629-15.448,34.672-29.273,53.79-41.157c10.229-6.359,22.809-4.914,31.319,3.585c8.499,8.51,9.944,21.09,3.585,31.319
	c-11.884,19.118-25.698,37.16-41.157,53.79c21.269-7.909,43.234-13.772,65.453-17.441c11.874-1.961,22.946,4.186,27.554,15.301
	c4.598,11.114,1.118,23.294-8.668,30.306c-18.296,13.118-37.972,24.496-58.609,33.944c11.346,0.422,22.64,1.371,33.849,2.858
	C469.789,226.464,480.903,228.488,491.87,231.051z M490.383,255.736c0-0.633-0.105-1.497-0.569-2.288
	c-0.475-0.791-1.297-1.518-2.731-1.856c-31.677-7.381-64.693-10.07-97.594-7.888c0.717,8.014,0.717,16.049,0,24.064
	c32.89,2.183,65.917-0.506,97.594-7.888C489.95,259.206,490.383,256.991,490.383,255.736z M471.054,171.029
	c2.404-1.719,1.951-3.923,1.466-5.083c-0.485-1.17-1.719-3.048-4.64-2.573c-24.865,4.113-49.403,11.125-72.918,20.868
	c-6.812,2.826-13.592,5.895-20.236,9.185c3.743,7.118,6.823,14.552,9.216,22.229c7.012-2.373,13.972-4.988,20.795-7.814
	C428.252,198.098,450.565,185.718,471.054,171.029z M472.52,345.527c0.485-1.16,0.939-3.364-1.466-5.083
	c-20.489-14.689-42.802-27.069-66.317-36.812c-6.823-2.826-13.782-5.441-20.795-7.814c-2.394,7.677-5.473,15.111-9.216,22.229
	c6.643,3.29,13.424,6.359,20.236,9.185c23.515,9.744,48.053,16.756,72.918,20.868C470.801,348.585,472.035,346.697,472.52,345.527z
	 M422.252,95.084c1.561-2.51,0.295-4.376-0.591-5.272c-0.896-0.886-2.763-2.151-5.272-0.591
	c-21.406,13.308-41.378,29.188-59.379,47.189c-5.23,5.22-10.313,10.661-15.195,16.239c3.079,2.573,6.042,5.294,8.879,8.13
	c2.837,2.837,5.557,5.8,8.13,8.879c5.578-4.882,11.02-9.965,16.239-15.195C393.063,136.462,408.944,116.49,422.252,95.084z
	 M421.661,421.661c0.886-0.896,2.151-2.763,0.591-5.272c-13.308-21.406-29.188-41.378-47.189-59.379
	c-5.22-5.23-10.661-10.313-16.239-15.195c-2.573,3.079-5.294,6.042-8.13,8.879c-2.837,2.837-5.8,5.557-8.879,8.13
	c4.882,5.578,9.965,11.02,15.195,16.239c18,18,37.972,33.881,59.379,47.189C418.899,423.813,420.765,422.547,421.661,421.661z
	 M367.207,235.965c0,0-0.011-0.011-0.011-0.021c-0.137-0.791-0.728-3.828-0.896-4.598c-2.12-9.659-5.483-18.918-9.997-27.628
	l-17.157,17.146l21.586,21.586L367.207,235.965z M367.176,275.73l-6.443-6.443l-21.586,21.575l17.072,17.072
	c4.566-8.773,7.94-18.085,10.081-27.807C366.469,279.357,367.06,276.457,367.176,275.73z M348.1,43.593
	c0.475-2.921-1.402-4.155-2.573-4.64c-1.16-0.485-3.364-0.928-5.083,1.466c-14.689,20.489-27.069,42.802-36.812,66.317
	c-2.826,6.823-5.441,13.782-7.814,20.795c7.677,2.394,15.111,5.473,22.229,9.216c3.29-6.643,6.359-13.424,9.185-20.236
	C336.975,92.996,343.987,68.458,348.1,43.593z M345.527,472.52c1.17-0.485,3.048-1.729,2.573-4.64
	c-4.113-24.865-11.125-49.403-20.868-72.918c-2.826-6.812-5.895-13.592-9.185-20.236c-7.118,3.743-14.552,6.823-22.229,9.216
	c2.373,7.012,4.988,13.972,7.814,20.795c9.744,23.515,22.123,45.828,36.812,66.317C342.163,473.448,344.367,473.005,345.527,472.52z
	 M325.734,277.438l21.575-21.575l-21.575-21.575l-21.586,21.575L325.734,277.438z M325.734,207.451l20.162-20.173
	c-3.1-4.07-6.485-7.961-10.113-11.589c-3.585-3.585-7.424-6.939-11.441-10.007l-20.194,20.183L325.734,207.451z M345.79,324.342
	l-20.057-20.057l-21.586,21.575l20.046,20.035c4.07-3.1,7.961-6.485,11.589-10.113C339.368,332.198,342.722,328.36,345.79,324.342z
	 M290.735,242.45l21.575-21.586l-21.575-21.575l-21.575,21.575L290.735,242.45z M290.735,312.437l21.575-21.575l-21.575-21.575
	l-21.575,21.575L290.735,312.437z M290.735,172.452l17.188-17.199c-8.763-4.566-18.074-7.94-27.797-10.081
	c-0.77-0.169-3.67-0.759-4.397-0.875l-6.57,6.58L290.735,172.452z M307.755,356.304l-17.02-17.02l-21.575,21.575l6.338,6.348
	c0.011,0,0.021,0,0.032-0.011c0.791-0.137,3.828-0.728,4.598-0.896C289.786,364.181,299.034,360.827,307.755,356.304z
	 M255.736,207.451l21.575-21.586l-21.575-21.575l-21.575,21.575L255.736,207.451z M255.736,277.438l21.575-21.575l-21.575-21.575
	l-21.575,21.575L255.736,277.438z M255.736,347.435l21.575-21.575l-21.575-21.575l-21.575,21.575L255.736,347.435z M267.768,121.984
	c0.496-7.403,0.738-14.847,0.738-22.239c0-25.456-2.9-50.806-8.626-75.354c-0.675-2.868-2.889-3.301-4.144-3.301
	s-3.469,0.432-4.144,3.301c-5.726,24.549-8.626,49.899-8.626,75.354c0,7.392,0.243,14.837,0.738,22.239
	c4.007-0.359,8.014-0.538,12.032-0.538C259.754,121.446,263.761,121.626,267.768,121.984z M268.506,411.728
	c0-7.392-0.243-14.837-0.738-22.239c-8.014,0.717-16.049,0.717-24.064,0c-0.496,7.403-0.738,14.847-0.738,22.239
	c0,25.456,2.9,50.806,8.626,75.354c0.675,2.868,2.889,3.301,4.144,3.301s3.469-0.432,4.144-3.301
	C265.606,462.534,268.506,437.184,268.506,411.728z M242.313,150.877l-6.57-6.58c-0.548,0.084-3.627,0.707-4.397,0.875
	c-9.722,2.141-19.034,5.515-27.807,10.081l17.199,17.199L242.313,150.877z M220.738,242.45l21.575-21.586l-21.575-21.575
	l-21.575,21.575L220.738,242.45z M220.738,312.437l21.575-21.575l-21.575-21.575l-21.575,21.575L220.738,312.437z M235.965,367.207
	l6.348-6.348l-21.575-21.575l-17.02,17.02c8.71,4.513,17.969,7.877,27.628,9.997c0.77,0.169,3.807,0.759,4.598,0.896
	C235.954,367.197,235.965,367.207,235.965,367.207z M215.655,127.531c-2.373-7.012-4.988-13.972-7.814-20.795
	c-9.744-23.515-22.123-45.828-36.812-66.317c-1.023-1.434-2.225-1.845-3.269-1.845c-0.717,0-1.35,0.179-1.814,0.38
	c-1.171,0.485-3.048,1.729-2.573,4.64c4.113,24.865,11.125,49.403,20.868,72.918c2.826,6.812,5.895,13.592,9.185,20.236
	C200.544,133.004,207.978,129.924,215.655,127.531z M207.841,404.737c2.826-6.823,5.441-13.782,7.814-20.795
	c-7.677-2.394-15.111-5.473-22.229-9.216c-3.29,6.643-6.359,13.424-9.185,20.236c-9.744,23.515-16.756,48.053-20.868,72.918
	c-0.475,2.91,1.402,4.155,2.573,4.64c1.16,0.485,3.364,0.928,5.083-1.466C185.718,450.565,198.098,428.252,207.841,404.737z
	 M185.739,207.451l21.575-21.586l-20.183-20.183c-4.018,3.069-7.856,6.422-11.441,10.007c-3.627,3.627-7.012,7.519-10.113,11.589
	L185.739,207.451z M185.739,277.438l21.575-21.575l-21.575-21.575l-21.575,21.575L185.739,277.438z M187.278,345.896l20.035-20.035
	l-21.575-21.575l-20.057,20.057c3.069,4.018,6.422,7.856,10.007,11.441C179.317,339.411,183.208,342.796,187.278,345.896z
	 M150.74,242.45l21.575-21.586l-17.146-17.146c-4.524,8.721-7.877,17.969-9.997,27.628c-0.169,0.77-0.759,3.807-0.896,4.598
	c-0.011,0.011-0.011,0.021-0.011,0.032L150.74,242.45z M155.253,307.923l17.062-17.062l-21.575-21.575l-6.443,6.443
	c0.116,0.728,0.707,3.627,0.875,4.397C147.313,289.849,150.687,299.161,155.253,307.923z M160.779,160.779
	c2.837-2.837,5.8-5.557,8.879-8.13c-4.882-5.578-9.965-11.019-15.195-16.239c-18-18-37.972-33.881-59.379-47.189
	c-0.865-0.538-1.645-0.738-2.341-0.738c-1.329,0-2.341,0.749-2.931,1.329c-0.886,0.896-2.151,2.763-0.591,5.272
	c13.308,21.406,29.188,41.378,47.189,59.379c5.22,5.23,10.661,10.313,16.239,15.195
	C155.222,166.579,157.942,163.616,160.779,160.779z M169.658,358.824c-3.079-2.573-6.042-5.294-8.879-8.13
	c-2.837-2.837-5.557-5.8-8.13-8.879c-5.578,4.882-11.019,9.965-16.239,15.195c-18,18-33.881,37.972-47.189,59.379
	c-1.561,2.51-0.295,4.376,0.591,5.272c0.896,0.886,2.763,2.151,5.272,0.591c21.406-13.308,41.378-29.188,59.379-47.189
	C159.693,369.843,164.776,364.402,169.658,358.824z M127.531,215.655c2.394-7.677,5.473-15.111,9.216-22.229
	c-6.643-3.29-13.424-6.359-20.236-9.185c-23.515-9.744-48.053-16.756-72.918-20.868c-0.327-0.053-0.622-0.074-0.907-0.074
	c-2.267,0-3.301,1.603-3.733,2.647c-0.485,1.16-0.939,3.364,1.466,5.083c20.489,14.689,42.802,27.069,66.317,36.812
	C113.559,210.667,120.518,213.282,127.531,215.655z M136.747,318.047c-3.743-7.118-6.823-14.552-9.216-22.229
	c-7.012,2.373-13.972,4.988-20.795,7.814c-23.515,9.744-45.828,22.123-66.317,36.812c-2.404,1.719-1.951,3.923-1.466,5.083
	c0.485,1.17,1.729,3.058,4.64,2.573c24.865-4.113,49.403-11.125,72.918-20.868C123.323,324.405,130.104,321.337,136.747,318.047z
	 M121.984,267.768c-0.717-8.014-0.717-16.049,0-24.064c-7.403-0.496-14.847-0.738-22.239-0.738c-25.456,0-50.806,2.9-75.354,8.626
	c-2.868,0.675-3.301,2.889-3.301,4.144s0.432,3.469,3.301,4.144C56.068,267.273,89.094,269.951,121.984,267.768z"/>
<g>
	<path style="fill:#FFE155;" d="M489.813,253.448c0.464,0.791,0.569,1.656,0.569,2.288c0,1.255-0.432,3.469-3.301,4.144
		c-31.677,7.381-64.704,10.07-97.594,7.888c0.717-8.014,0.717-16.049,0-24.064c32.9-2.183,65.917,0.506,97.594,7.888
		C488.516,251.93,489.339,252.657,489.813,253.448z"/>
	<path style="fill:#FFE155;" d="M472.52,165.946c0.485,1.16,0.939,3.364-1.466,5.083c-20.489,14.689-42.802,27.069-66.317,36.812
		c-6.823,2.826-13.782,5.441-20.795,7.814c-2.394-7.677-5.473-15.111-9.216-22.229c6.643-3.29,13.424-6.359,20.236-9.185
		c23.515-9.744,48.053-16.756,72.918-20.868C470.801,162.899,472.035,164.776,472.52,165.946z"/>
	<path style="fill:#FFE155;" d="M471.054,340.444c2.404,1.719,1.951,3.923,1.466,5.083c-0.485,1.17-1.719,3.058-4.64,2.573
		c-24.865-4.113-49.403-11.125-72.918-20.868c-6.812-2.826-13.592-5.895-20.236-9.185c3.743-7.118,6.823-14.552,9.216-22.229
		c7.012,2.373,13.972,4.988,20.795,7.814C428.252,313.375,450.565,325.755,471.054,340.444z"/>
	<path style="fill:#FFE155;" d="M421.661,89.811c0.886,0.896,2.151,2.763,0.591,5.272c-13.308,21.406-29.188,41.378-47.189,59.379
		c-5.22,5.23-10.661,10.313-16.239,15.195c-2.573-3.079-5.294-6.042-8.13-8.879c-2.837-2.837-5.8-5.557-8.879-8.13
		c4.882-5.578,9.965-11.019,15.195-16.239c18-18,37.972-33.881,59.379-47.189C418.899,87.66,420.765,88.926,421.661,89.811z"/>
	<path style="fill:#FFE155;" d="M422.252,416.389c1.561,2.51,0.295,4.376-0.591,5.272c-0.896,0.886-2.763,2.151-5.272,0.591
		c-21.406-13.308-41.378-29.188-59.379-47.189c-5.23-5.22-10.313-10.661-15.195-16.239c3.079-2.573,6.042-5.294,8.879-8.13
		c2.837-2.837,5.557-5.8,8.13-8.879c5.578,4.882,11.02,9.965,16.239,15.195C393.063,375.01,408.944,394.983,422.252,416.389z"/>
</g>
<g>
	<path style="fill:#FC6A2B;" d="M367.197,235.943c0,0.011,0.011,0.021,0.011,0.021l-6.475,6.485l-21.586-21.586l17.157-17.146
		c4.513,8.71,7.877,17.969,9.997,27.628C366.469,232.116,367.06,235.153,367.197,235.943z"/>
	<path style="fill:#FC6A2B;" d="M360.733,269.287l6.443,6.443c-0.116,0.728-0.707,3.627-0.875,4.397
		c-2.141,9.722-5.515,19.034-10.081,27.807l-17.072-17.072L360.733,269.287z"/>
</g>
<g>
	<path style="fill:#FFE155;" d="M345.527,38.953c1.17,0.485,3.048,1.719,2.573,4.64c-4.113,24.865-11.125,49.403-20.868,72.918
		c-2.826,6.812-5.895,13.592-9.185,20.236c-7.118-3.743-14.552-6.823-22.229-9.216c2.373-7.012,4.988-13.972,7.814-20.795
		c9.744-23.515,22.123-45.828,36.812-66.317C342.163,38.025,344.367,38.468,345.527,38.953z"/>
	<path style="fill:#FFE155;" d="M348.1,467.88c0.475,2.91-1.402,4.155-2.573,4.64c-1.16,0.485-3.364,0.928-5.083-1.466
		c-14.689-20.489-27.069-42.802-36.812-66.317c-2.826-6.823-5.441-13.782-7.814-20.795c7.677-2.394,15.111-5.473,22.229-9.216
		c3.29,6.643,6.359,13.424,9.185,20.236C336.975,418.477,343.987,443.015,348.1,467.88z"/>
</g>
<g>
	<polygon style="fill:#FC6A2B;" points="347.309,255.863 325.734,277.438 304.148,255.863 325.734,234.288 	"/>
	<path style="fill:#FC6A2B;" d="M345.896,187.279l-20.162,20.173l-21.586-21.586l20.194-20.183
		c4.018,3.069,7.856,6.422,11.441,10.007C339.411,179.317,342.796,183.208,345.896,187.279z"/>
	<path style="fill:#FC6A2B;" d="M325.734,304.285l20.057,20.057c-3.069,4.018-6.422,7.856-10.007,11.441
		c-3.627,3.627-7.519,7.012-11.589,10.113l-20.046-20.035L325.734,304.285z"/>
	<polygon style="fill:#FC6A2B;" points="312.31,220.864 290.735,242.45 269.16,220.864 290.735,199.289 	"/>
	
		<rect x="275.473" y="275.611" transform="matrix(-0.7071 0.7071 -0.7071 -0.7071 701.9788 290.9644)" style="fill:#FC6A2B;" width="30.512" height="30.512"/>
	<path style="fill:#FC6A2B;" d="M307.923,155.253l-17.188,17.199l-21.575-21.575l6.57-6.58c0.728,0.116,3.627,0.707,4.397,0.875
		C289.849,147.313,299.161,150.687,307.923,155.253z"/>
	<path style="fill:#FC6A2B;" d="M290.735,339.284l17.02,17.02c-8.721,4.524-17.969,7.877-27.628,9.997
		c-0.77,0.169-3.807,0.759-4.598,0.896c-0.011,0.011-0.021,0.011-0.032,0.011l-6.338-6.348L290.735,339.284z"/>
	<polygon style="fill:#FC6A2B;" points="277.311,185.865 255.736,207.451 234.161,185.865 255.736,164.29 	"/>
	
		<rect x="240.477" y="240.612" transform="matrix(-0.7071 0.7071 -0.7071 -0.7071 617.4893 255.9637)" style="fill:#FC6A2B;" width="30.512" height="30.512"/>
	
		<rect x="240.474" y="310.607" transform="matrix(-0.7071 0.7071 -0.7071 -0.7071 666.978 375.4539)" style="fill:#FC6A2B;" width="30.512" height="30.512"/>
</g>
<g>
	<path style="fill:#FFE155;" d="M268.506,99.745c0,7.392-0.243,14.837-0.738,22.239c-4.007-0.359-8.014-0.538-12.032-0.538
		c-4.018,0-8.025,0.179-12.032,0.538c-0.496-7.403-0.738-14.847-0.738-22.239c0-25.456,2.9-50.806,8.626-75.354
		c0.675-2.868,2.889-3.301,4.144-3.301s3.469,0.432,4.144,3.301C265.606,48.939,268.506,74.289,268.506,99.745z"/>
	<path style="fill:#FFE155;" d="M267.768,389.489c0.496,7.403,0.738,14.847,0.738,22.239c0,25.456-2.9,50.806-8.626,75.354
		c-0.675,2.868-2.889,3.301-4.144,3.301s-3.469-0.432-4.144-3.301c-5.726-24.549-8.626-49.899-8.626-75.354
		c0-7.392,0.243-14.837,0.738-22.239C251.719,390.206,259.754,390.206,267.768,389.489z"/>
</g>
<g>
	<path style="fill:#FC6A2B;" d="M235.743,144.297l6.57,6.58l-21.575,21.575l-17.199-17.199c8.773-4.566,18.085-7.94,27.807-10.081
		C232.116,145.004,235.195,144.382,235.743,144.297z"/>
	<polygon style="fill:#FC6A2B;" points="242.313,220.864 220.738,242.45 199.163,220.864 220.738,199.289 	"/>
	
		<rect x="205.478" y="275.608" transform="matrix(-0.7071 0.7071 -0.7071 -0.7071 582.4885 340.4532)" style="fill:#FC6A2B;" width="30.512" height="30.512"/>
	<path style="fill:#FC6A2B;" d="M242.313,360.859l-6.348,6.348c0,0-0.011-0.011-0.021-0.011c-0.791-0.137-3.828-0.728-4.598-0.896
		c-9.659-2.12-18.918-5.483-27.628-9.997l17.02-17.02L242.313,360.859z"/>
</g>
<g>
	<path style="fill:#FFE155;" d="M207.841,106.736c2.826,6.823,5.441,13.782,7.814,20.795c-7.677,2.394-15.111,5.473-22.229,9.216
		c-3.29-6.643-6.359-13.424-9.185-20.236c-9.744-23.515-16.756-48.053-20.868-72.918c-0.475-2.91,1.402-4.155,2.573-4.64
		c0.464-0.2,1.097-0.38,1.814-0.38c1.044,0,2.246,0.411,3.269,1.845C185.718,60.908,198.098,83.221,207.841,106.736z"/>
	<path style="fill:#FFE155;" d="M215.655,383.942c-2.373,7.012-4.988,13.972-7.814,20.795
		c-9.744,23.515-22.123,45.828-36.812,66.317c-1.719,2.394-3.923,1.951-5.083,1.466c-1.171-0.485-3.048-1.729-2.573-4.64
		c4.113-24.865,11.125-49.403,20.868-72.918c2.826-6.812,5.895-13.592,9.185-20.236
		C200.544,378.469,207.978,381.548,215.655,383.942z"/>
</g>
<g>
	<path style="fill:#FC6A2B;" d="M207.314,185.865l-21.575,21.586l-20.162-20.173c3.1-4.07,6.485-7.961,10.113-11.589
		c3.585-3.585,7.424-6.939,11.441-10.007L207.314,185.865z"/>
	
		<rect x="170.472" y="240.609" transform="matrix(-0.7071 0.7071 -0.7071 -0.7071 497.981 305.4599)" style="fill:#FC6A2B;" width="30.512" height="30.512"/>
	<path style="fill:#FC6A2B;" d="M207.314,325.86l-20.035,20.035c-4.07-3.1-7.961-6.485-11.589-10.113
		c-3.585-3.585-6.939-7.424-10.007-11.441l20.057-20.057L207.314,325.86z"/>
	<path style="fill:#FC6A2B;" d="M172.315,220.864L150.74,242.45l-6.475-6.475c0-0.011,0-0.021,0.011-0.032
		c0.137-0.791,0.728-3.828,0.896-4.598c2.12-9.659,5.473-18.907,9.997-27.628L172.315,220.864z"/>
	<path style="fill:#FC6A2B;" d="M172.315,290.862l-17.062,17.062c-4.566-8.763-7.94-18.074-10.081-27.797
		c-0.169-0.77-0.759-3.67-0.875-4.397l6.443-6.443L172.315,290.862z"/>
</g>
<g>
	<path style="fill:#FFE155;" d="M169.658,152.649c-3.079,2.573-6.042,5.294-8.879,8.13c-2.837,2.837-5.557,5.8-8.13,8.879
		c-5.578-4.882-11.019-9.965-16.239-15.195c-18-18-33.881-37.972-47.189-59.379c-1.561-2.51-0.295-4.376,0.591-5.272
		c0.591-0.58,1.603-1.329,2.931-1.329c0.696,0,1.476,0.2,2.341,0.738c21.406,13.308,41.378,29.188,59.379,47.189
		C159.693,141.629,164.776,147.071,169.658,152.649z"/>
	<path style="fill:#FFE155;" d="M160.779,350.694c2.837,2.837,5.8,5.557,8.879,8.13c-4.882,5.578-9.965,11.02-15.195,16.239
		c-18,18-37.972,33.881-59.379,47.189c-2.51,1.561-4.376,0.295-5.272-0.591c-0.886-0.896-2.151-2.763-0.591-5.272
		c13.308-21.406,29.188-41.378,47.189-59.379c5.22-5.23,10.661-10.313,16.239-15.195
		C155.222,344.894,157.942,347.857,160.779,350.694z"/>
	<path style="fill:#FFE155;" d="M136.747,193.426c-3.743,7.118-6.823,14.552-9.216,22.229c-7.012-2.373-13.972-4.988-20.795-7.814
		c-23.515-9.744-45.828-22.123-66.317-36.812c-2.404-1.719-1.951-3.923-1.466-5.083c0.432-1.044,1.466-2.647,3.733-2.647
		c0.285,0,0.58,0.021,0.907,0.074c24.865,4.113,49.403,11.125,72.918,20.868C123.323,187.068,130.104,190.136,136.747,193.426z"/>
	<path style="fill:#FFE155;" d="M127.531,295.818c2.394,7.677,5.473,15.111,9.216,22.229c-6.643,3.29-13.424,6.359-20.236,9.185
		c-23.515,9.744-48.053,16.756-72.918,20.868c-2.91,0.485-4.155-1.402-4.64-2.573c-0.485-1.16-0.939-3.364,1.466-5.083
		c20.489-14.689,42.802-27.069,66.317-36.812C113.559,300.806,120.518,298.19,127.531,295.818z"/>
	<path style="fill:#FFE155;" d="M121.984,243.705c-0.717,8.014-0.717,16.049,0,24.064c-32.89,2.183-65.917-0.496-97.594-7.888
		c-2.868-0.675-3.301-2.889-3.301-4.144c0-1.255,0.432-3.469,3.301-4.144c24.549-5.726,49.899-8.626,75.354-8.626
		C107.137,242.966,114.582,243.209,121.984,243.705z"/>
</g>
<g>
</g>
<g>
</g>
<g>
</g>
<g>
</g>
<g>
</g>
<g>
</g>
<g>
</g>
<g>
</g>
<g>
</g>
<g>
</g>
<g>
</g>
<g>
</g>
<g>
</g>
<g>
</g>
<g>
</g>
</svg>
