<?xml version="1.0" encoding="iso-8859-1"?>
<!-- Generator: Adobe Illustrator 19.0.0, SVG Export Plug-In . SVG Version: 6.00 Build 0)  -->
<svg version="1.1" id="Layer_1" xmlns="http://www.w3.org/2000/svg" xmlns:xlink="http://www.w3.org/1999/xlink" x="0px" y="0px"
	 viewBox="0 0 503.467 503.467" style="enable-background:new 0 0 503.467 503.467;" xml:space="preserve">
<g transform="translate(1 1)">
	<path style="fill:#FFE079;" d="M412.867,250.733c0-89.6-72.533-162.133-162.133-162.133S88.6,161.133,88.6,250.733
		s72.533,162.133,162.133,162.133S412.867,340.333,412.867,250.733 M387.267,428.226c2.56,16.213-1.707,29.867-12.8,36.693
		c-11.093,5.973-25.6,2.56-37.547-6.827c-1.707,16.213-9.387,28.16-22.187,31.573c-12.8,3.414-24.747-3.413-34.987-16.213
		c-5.973,15.36-17.067,24.747-29.013,24.747c-11.947,0-23.04-10.24-29.013-24.747c-9.387,12.8-23.04,19.627-34.987,16.213
		c-11.947-3.413-19.627-15.36-22.187-31.573c-12.8,10.24-27.307,12.8-37.547,6.827c-11.093-5.973-15.36-20.48-12.8-36.693
		c-14.507,6.827-29.867,5.973-38.4-2.56s-9.387-23.893-2.56-38.4c-16.213,2.56-29.867-1.707-36.693-12.8
		c-5.973-11.093-2.56-25.6,6.827-37.547c-16.213-1.707-29.013-9.387-31.573-21.333c-3.413-11.947,3.413-25.6,16.213-34.987
		c-15.36-5.973-24.747-17.067-24.747-29.013c0-11.947,10.24-23.04,24.747-29.013c-12.8-9.387-19.627-23.04-16.213-34.987
		c3.413-11.947,15.36-19.627,31.573-21.333c-10.24-12.8-13.653-27.307-6.827-37.547c5.973-11.093,20.48-15.36,36.693-12.8
		c-6.827-14.507-5.973-29.867,2.56-38.4s23.893-9.387,38.4-2.56c-2.56-16.213,1.707-29.867,12.8-36.693
		c11.093-5.973,25.6-3.413,37.547,6.827c1.707-16.213,9.387-28.16,22.187-31.573c11.947-3.413,24.747,3.413,34.987,16.213
		c5.973-15.36,17.067-24.747,29.013-24.747c11.947,0,23.04,10.24,29.013,24.747c9.387-12.8,23.04-19.627,34.987-16.213
		c11.947,3.413,19.627,15.36,22.187,31.573c12.8-10.24,27.307-13.653,37.547-6.827c11.093,5.973,15.36,20.48,12.8,36.693
		c14.507-6.827,29.867-5.973,38.4,2.56s9.387,23.893,2.56,38.4c16.213-2.56,29.867,1.707,36.693,12.8
		c5.973,11.093,2.56,25.6-6.827,37.547c16.213,1.707,28.16,9.387,31.573,21.333c3.413,11.947-3.413,25.6-16.213,34.987
		c15.36,5.973,24.747,17.067,24.747,29.013c0,11.947-10.24,23.04-24.747,29.013c12.8,9.387,19.627,23.04,16.213,34.987
		c-3.413,11.947-15.36,19.627-31.573,21.333c10.24,12.8,12.8,27.307,6.827,37.547c-5.973,11.093-20.48,15.36-36.693,12.8
		c6.827,14.507,5.973,29.867-2.56,38.4S401.773,435.053,387.267,428.226"/>
	<path style="fill:#AE938D;" d="M250.733,88.6c89.6,0,162.133,72.533,162.133,162.133s-72.533,162.133-162.133,162.133
		S88.6,340.333,88.6,250.733S161.133,88.6,250.733,88.6"/>
	<path style="fill:#F2EDDA;" d="M361.667,225.133c5.12,0,8.533-3.413,8.533-8.533s-3.413-8.533-8.533-8.533
		s-8.533,3.413-8.533,8.533S356.547,225.133,361.667,225.133z M361.667,293.4c5.12,0,8.533-3.413,8.533-8.533
		s-3.413-8.533-8.533-8.533s-8.533,3.413-8.533,8.533S356.547,293.4,361.667,293.4z M310.467,327.533
		c5.12,0,8.533-3.413,8.533-8.533s-3.413-8.533-8.533-8.533s-8.533,3.413-8.533,8.533S305.347,327.533,310.467,327.533z
		 M250.733,361.667c5.12,0,8.533-3.413,8.533-8.533c0-5.12-3.413-8.533-8.533-8.533c-5.12,0-8.533,3.413-8.533,8.533
		C242.2,358.253,245.613,361.667,250.733,361.667z M250.733,293.4c5.12,0,8.533-3.413,8.533-8.533s-3.413-8.533-8.533-8.533
		c-5.12,0-8.533,3.413-8.533,8.533S245.613,293.4,250.733,293.4z M191,327.533c5.12,0,8.533-3.413,8.533-8.533
		s-3.413-8.533-8.533-8.533c-5.12,0-8.533,3.413-8.533,8.533S185.88,327.533,191,327.533z M131.267,293.4
		c5.12,0,8.533-3.413,8.533-8.533s-3.413-8.533-8.533-8.533c-5.12,0-8.533,3.413-8.533,8.533S126.147,293.4,131.267,293.4z
		 M131.267,225.133c5.12,0,8.533-3.413,8.533-8.533s-3.413-8.533-8.533-8.533c-5.12,0-8.533,3.413-8.533,8.533
		S126.147,225.133,131.267,225.133z M191,259.267c5.12,0,8.533-3.413,8.533-8.533S196.12,242.2,191,242.2
		c-5.12,0-8.533,3.413-8.533,8.533S185.88,259.267,191,259.267z M310.467,259.267c5.12,0,8.533-3.413,8.533-8.533
		s-3.413-8.533-8.533-8.533s-8.533,3.413-8.533,8.533S305.347,259.267,310.467,259.267z M310.467,191
		c5.12,0,8.533-3.413,8.533-8.533c0-5.12-3.413-8.533-8.533-8.533s-8.533,3.413-8.533,8.533
		C301.933,187.587,305.347,191,310.467,191z M191,191c5.12,0,8.533-3.413,8.533-8.533c0-5.12-3.413-8.533-8.533-8.533
		c-5.12,0-8.533,3.413-8.533,8.533C182.467,187.587,185.88,191,191,191z M250.733,156.867c5.12,0,8.533-3.413,8.533-8.533
		c0-5.12-3.413-8.533-8.533-8.533c-5.12,0-8.533,3.413-8.533,8.533C242.2,153.453,245.613,156.867,250.733,156.867z
		 M250.733,225.133c5.12,0,8.533-3.413,8.533-8.533s-3.413-8.533-8.533-8.533c-5.12,0-8.533,3.413-8.533,8.533
		S245.613,225.133,250.733,225.133z"/>
</g>
<path style="fill:#51565F;" d="M251.733,503.467c-11.947,0-23.04-7.68-30.72-21.333c-10.24,11.093-23.04,16.213-34.987,12.8
	c-11.947-3.413-20.48-13.653-23.893-28.16c-12.8,7.68-26.453,9.387-36.693,3.413s-16.213-18.773-15.36-34.133
	c-14.507,4.267-28.16,2.56-36.693-5.973s-11.093-22.187-5.973-36.693c-15.36,0.853-28.16-5.12-34.133-15.36
	c-5.973-10.24-5.12-23.893,3.413-36.693c-14.507-3.413-25.6-11.947-28.16-23.893c-3.413-11.947,1.707-24.747,12.8-34.987
	C7.68,275.627,0,264.533,0,251.733c0-11.947,7.68-23.04,21.333-30.72c-11.093-10.24-16.213-23.04-12.8-34.987
	s13.653-20.48,28.16-23.893c-7.68-12.8-9.387-26.453-3.413-36.693c5.973-10.24,18.773-16.213,34.133-15.36
	c-4.267-14.507-2.56-28.16,5.973-36.693s22.187-11.093,36.693-5.973c-0.853-15.36,5.12-28.16,15.36-34.133
	c10.24-5.973,23.893-5.12,36.693,3.413c3.413-14.507,11.947-25.6,23.893-28.16c11.947-3.413,24.747,1.707,34.987,12.8
	C227.84,7.68,238.933,0,251.733,0c11.947,0,23.04,7.68,30.72,21.333c10.24-11.093,23.04-16.213,34.987-12.8
	c11.947,3.413,20.48,13.653,23.893,28.16c12.8-7.68,26.453-9.387,36.693-3.413c10.24,5.973,16.213,18.773,15.36,34.133
	c14.507-4.267,28.16-2.56,36.693,5.973s11.093,22.187,5.973,36.693c15.36-0.853,28.16,5.12,34.133,15.36
	c5.973,10.24,5.12,23.893-3.413,36.693c14.507,3.413,25.6,11.947,28.16,23.893c3.413,11.947-1.707,24.747-12.8,34.987
	c13.653,6.827,21.333,17.92,21.333,30.72c0,11.947-7.68,23.04-21.333,30.72c11.093,10.24,16.213,23.04,12.8,34.987
	c-3.413,11.947-13.653,20.48-28.16,23.893c7.68,12.8,9.387,26.453,3.413,36.693c-5.973,10.24-18.773,16.213-34.133,15.36
	c4.267,14.507,2.56,28.16-5.973,36.693s-22.187,11.093-36.693,5.973c0.853,15.36-5.12,28.16-15.36,34.133
	c-10.24,5.973-23.893,5.12-36.693-3.413c-3.413,14.507-11.947,25.6-23.893,28.16c-11.947,3.413-24.747-1.707-34.987-12.8
	C274.773,495.787,263.68,503.467,251.733,503.467z M226.987,473.6c5.973,12.8,15.36,21.333,24.747,21.333
	c10.24,0,19.627-8.533,24.747-21.333c0,0,0,0,0-0.853l-2.56-17.067c0,0,0,0,0-0.853c0-1.707,1.707-4.267,3.413-4.267
	c2.56,0,4.267,1.707,5.12,3.413l2.56,17.067c0,0,0,0,0,0.853c8.533,11.093,19.627,17.067,29.867,14.507
	c9.387-2.56,16.213-12.8,18.773-27.307c0,0,0,0,0-0.853l-6.827-15.36c0-0.853,0-0.853,0-1.707c0-1.707,0.853-3.413,2.56-4.267
	c2.56-0.853,4.267,0,5.973,2.56l6.827,15.36c0,0,0,0,0,0.853c11.093,8.533,23.893,11.093,32.427,5.973
	c8.533-5.12,12.8-17.067,11.093-30.72l0,0l-10.24-13.653c-0.853-0.853-0.853-1.707-0.853-2.56c0-1.707,0.853-2.56,1.707-3.413
	c1.707-1.707,4.267-0.853,5.973,0.853l10.24,13.653l0,0c13.653,5.12,25.6,4.267,32.427-2.56c6.827-6.827,7.68-19.627,2.56-33.28l0,0
	l-13.653-10.24c-0.853-0.853-1.707-1.707-1.707-3.413c0-0.853,0-1.707,0.853-2.56c1.707-1.707,4.267-2.56,5.973-0.853l13.653,10.24
	l0,0c14.507,1.707,26.453-2.56,30.72-11.093c5.12-8.533,2.56-20.48-5.973-32.427c0,0,0,0-0.853,0l-15.36-6.827
	c-1.707-0.853-2.56-2.56-2.56-4.267c0-0.853,0-0.853,0-1.707c0.853-2.56,3.413-3.413,5.973-2.56l15.36,6.827c0,0,0,0,0.853,0
	c14.507-1.707,24.747-9.387,27.307-18.773s-2.56-20.48-14.507-29.867c0,0,0,0-0.853,0l-17.067-2.56c-2.56,0-3.413-1.707-3.413-4.267
	c0,0,0,0,0-0.853c0-2.56,2.56-4.267,5.12-3.413l17.067,2.56c0,0,0,0,0.853,0c12.8-5.12,21.333-15.36,21.333-24.747
	c0-10.24-8.533-19.627-21.333-24.747c0,0,0,0-0.853,0l-17.067,2.56c-2.56,0-4.267-1.707-5.12-3.413c0,0,0,0,0-0.853
	c0-1.707,1.707-4.267,3.413-4.267l17.067-2.56c0,0,0,0,0.853,0c11.093-8.533,17.067-19.627,14.507-29.867
	c-2.56-9.387-12.8-16.213-27.307-18.773c0,0,0,0-0.853,0l-15.36,6.827c-2.56,0.853-4.267,0-5.973-2.56c0-0.853,0-0.853,0-1.707
	c0-1.707,0.853-3.413,2.56-4.267l15.36-6.827c0,0,0,0,0.853,0c8.533-11.093,11.093-23.893,5.973-32.427s-17.067-12.8-30.72-11.093
	l0,0l-13.653,10.24c-1.707,1.707-4.267,0.853-5.973-0.853c-0.853-0.853-0.853-1.707-0.853-2.56c0-1.707,0.853-2.56,1.707-3.413
	l13.653-10.24l0,0c5.12-13.653,4.267-25.6-2.56-32.427c-6.827-6.827-19.627-7.68-33.28-2.56l0,0l-10.24,13.653
	c-1.707,1.707-4.267,2.56-5.973,0.853c-0.853-0.853-1.707-1.707-1.707-3.413c0-0.853,0-1.707,0.853-2.56l10.24-13.653l0,0
	c1.707-14.507-2.56-26.453-11.093-30.72c-8.533-5.12-20.48-2.56-32.427,5.973c0,0,0,0,0,0.853l-6.827,15.36
	c-0.853,2.56-3.413,3.413-5.973,2.56c-1.707-0.853-2.56-2.56-2.56-4.267c0-0.853,0-0.853,0-1.707l6.827-15.36c0,0,0,0,0-0.853
	c-1.707-14.507-9.387-24.747-18.773-27.307c-9.387-2.56-20.48,2.56-29.867,14.507c0,0,0,0,0,0.853l-2.56,17.067
	c0,2.56-2.56,4.267-5.12,3.413c-2.56,0-3.413-1.707-3.413-4.267c0,0,0,0,0-0.853l2.56-17.067c0,0,0,0,0-0.853
	c-5.973-12.8-15.36-21.333-24.747-21.333c-10.24,0-19.627,8.533-24.747,21.333c0,0,0,0,0,0.853l2.56,17.067c0,0,0,0,0,0.853
	c0,1.707-1.707,4.267-3.413,4.267c-2.56,0-4.267-1.707-5.12-3.413l-2.56-17.067c0,0,0,0,0-0.853
	c-8.533-11.093-20.48-17.067-29.867-14.507s-16.213,12.8-18.773,27.307c0,0,0,0,0,0.853l6.827,15.36c0,0.853,0,0.853,0,1.707
	c0,1.707-0.853,3.413-2.56,4.267c-2.56,0.853-4.267,0-5.973-2.56l-6.827-15.36c0,0,0,0,0-0.853
	c-11.093-8.533-23.893-11.093-32.427-5.973c-8.533,5.12-12.8,17.067-11.093,30.72l0,0l10.24,13.653
	c0.853,0.853,0.853,1.707,0.853,2.56c0,1.707-0.853,2.56-1.707,3.413c-1.707,1.707-4.267,0.853-5.973-0.853l-10.24-13.653l0,0
	c-13.653-5.12-25.6-4.267-32.427,2.56c-6.827,6.827-7.68,19.627-2.56,32.427l0,0l13.653,10.24c0.853,0.853,1.707,1.707,1.707,3.413
	c0,0.853,0,1.707-0.853,2.56c-1.707,1.707-4.267,2.56-5.973,0.853L69.974,115.2l0,0c-14.507-1.707-26.453,2.56-30.72,11.093
	c-5.12,8.533-2.56,20.48,5.973,32.427c0,0,0,0,0.853,0l15.36,6.827c1.707,0.853,2.56,2.56,2.56,4.267c0,0.853,0,0.853,0,1.707
	c-0.853,2.56-3.413,3.413-5.973,2.56l-15.36-6.827c0,0,0,0-0.853,0c-14.507,1.707-24.747,9.387-27.307,18.773
	c-2.56,9.387,2.56,20.48,14.507,29.867c0,0,0,0,0.853,0l17.067,2.56c2.56,0,3.413,1.707,3.413,4.267c0,0,0,0,0,0.853
	c0,2.56-2.56,4.267-5.12,3.413l-17.067-2.56c0,0,0,0-0.853,0c-12.8,5.973-21.333,15.36-21.333,24.747
	c0,10.24,8.533,19.627,21.333,24.747c0,0,0,0,0.853,0l17.067-2.56c2.56,0,4.267,1.707,5.12,3.413c0,0,0,0,0,0.853
	c0,1.707-1.707,4.267-3.413,4.267l-17.067,2.56c0,0,0,0-0.853,0c-11.093,8.533-17.067,19.627-14.507,29.867
	c2.56,9.387,12.8,16.213,27.307,18.773c0,0,0,0,0.853,0l15.36-6.827c2.56-0.853,4.267,0,5.973,2.56c0,0.853,0,0.853,0,1.707
	c0,1.707-0.853,3.413-2.56,4.267l-15.36,6.827c0,0,0,0-0.853,0c-8.533,11.093-11.093,23.893-5.973,32.427
	c5.12,8.533,17.067,12.8,30.72,11.093l0,0l13.653-10.24c1.707-1.707,4.267-0.853,5.973,0.853c0.853,0.853,0.853,1.707,0.853,2.56
	c0,1.707-0.853,2.56-1.707,3.413l-13.653,10.24l0,0c-5.12,13.653-4.267,25.6,2.56,32.427c6.827,6.827,19.627,7.68,32.427,2.56l0,0
	l10.24-13.653c1.707-1.707,4.267-2.56,5.973-0.853c0.853,0.853,1.707,1.707,1.707,3.413c0,0.853,0,1.707-0.853,2.56l-10.24,13.653
	l0,0c-1.707,14.507,2.56,26.453,11.093,30.72c8.533,5.12,20.48,2.56,32.427-5.973c0,0,0,0,0-0.853l6.827-15.36
	c0.853-2.56,3.413-3.413,5.973-2.56c1.707,0.853,2.56,2.56,2.56,4.267c0,0.853,0,0.853,0,1.707l-6.827,15.36c0,0,0,0,0,0.853
	c1.707,14.507,9.387,24.747,18.773,27.307c9.387,2.56,20.48-2.56,29.867-14.507c0,0,0,0,0-0.853l2.56-17.067
	c0-2.56,2.56-4.267,5.12-3.413c2.56,0,3.413,1.707,3.413,4.267c0,0,0,0,0,0.853L226.987,473.6L226.987,473.6z M251.733,418.133
	c-92.16,0-166.4-74.24-166.4-166.4s74.24-166.4,166.4-166.4s166.4,74.24,166.4,166.4c0,8.533-0.853,16.213-1.707,23.893
	l-10.24,36.693c0,0,0,0,0,0.853C380.587,377.173,320,418.133,251.733,418.133z M251.733,93.867
	c-87.04,0-157.867,70.827-157.867,157.867S164.693,409.6,251.733,409.6c64.853,0,122.88-39.253,146.773-98.987l9.387-35.84
	c0.853-6.827,1.707-14.507,1.707-22.187C409.6,164.693,338.773,93.867,251.733,93.867z M251.733,366.933
	c-6.827,0-12.8-5.973-12.8-12.8c0-6.827,5.973-12.8,12.8-12.8c6.827,0,12.8,5.973,12.8,12.8
	C264.533,360.96,258.56,366.933,251.733,366.933z M251.733,349.867c-2.56,0-4.267,1.707-4.267,4.267c0,2.56,1.707,4.267,4.267,4.267
	c2.56,0,4.267-1.707,4.267-4.267C256,351.573,254.293,349.867,251.733,349.867z M311.467,332.8c-6.827,0-12.8-5.973-12.8-12.8
	s5.973-12.8,12.8-12.8s12.8,5.973,12.8,12.8S318.293,332.8,311.467,332.8z M311.467,315.733c-2.56,0-4.267,1.707-4.267,4.267
	c0,2.56,1.707,4.267,4.267,4.267s4.267-1.707,4.267-4.267C315.733,317.44,314.027,315.733,311.467,315.733z M192,332.8
	c-6.827,0-12.8-5.973-12.8-12.8s5.973-12.8,12.8-12.8c6.827,0,12.8,5.973,12.8,12.8S198.827,332.8,192,332.8z M192,315.733
	c-2.56,0-4.267,1.707-4.267,4.267c0,2.56,1.707,4.267,4.267,4.267s4.267-1.707,4.267-4.267
	C196.267,317.44,194.56,315.733,192,315.733z M362.667,298.667c-6.827,0-12.8-5.973-12.8-12.8s5.973-12.8,12.8-12.8
	s12.8,5.973,12.8,12.8S369.493,298.667,362.667,298.667z M362.667,281.6c-2.56,0-4.267,1.707-4.267,4.267s1.707,4.267,4.267,4.267
	s4.267-1.707,4.267-4.267S365.227,281.6,362.667,281.6z M251.733,298.667c-6.827,0-12.8-5.973-12.8-12.8s5.973-12.8,12.8-12.8
	c6.827,0,12.8,5.973,12.8,12.8S258.56,298.667,251.733,298.667z M251.733,281.6c-2.56,0-4.267,1.707-4.267,4.267
	s1.707,4.267,4.267,4.267c2.56,0,4.267-1.707,4.267-4.267S254.293,281.6,251.733,281.6z M132.267,298.667
	c-6.827,0-12.8-5.973-12.8-12.8s5.973-12.8,12.8-12.8c6.827,0,12.8,5.973,12.8,12.8S139.093,298.667,132.267,298.667z
	 M132.267,281.6c-2.56,0-4.267,1.707-4.267,4.267s1.707,4.267,4.267,4.267c2.56,0,4.267-1.707,4.267-4.267
	S134.827,281.6,132.267,281.6z M311.467,264.533c-6.827,0-12.8-5.973-12.8-12.8s5.973-12.8,12.8-12.8s12.8,5.973,12.8,12.8
	S318.293,264.533,311.467,264.533z M311.467,247.467c-2.56,0-4.267,1.707-4.267,4.267s1.707,4.267,4.267,4.267
	s4.267-1.707,4.267-4.267S314.027,247.467,311.467,247.467z M192,264.533c-6.827,0-12.8-5.973-12.8-12.8s5.973-12.8,12.8-12.8
	c6.827,0,12.8,5.973,12.8,12.8S198.827,264.533,192,264.533z M192,247.467c-2.56,0-4.267,1.707-4.267,4.267S189.44,256,192,256
	s4.267-1.707,4.267-4.267S194.56,247.467,192,247.467z M362.667,230.4c-6.827,0-12.8-5.973-12.8-12.8c0-6.827,5.973-12.8,12.8-12.8
	s12.8,5.973,12.8,12.8C375.467,224.426,369.493,230.4,362.667,230.4z M362.667,213.333c-2.56,0-4.267,1.707-4.267,4.267
	c0,2.56,1.707,4.267,4.267,4.267s4.267-1.707,4.267-4.267C366.933,215.04,365.227,213.333,362.667,213.333z M251.733,230.4
	c-6.827,0-12.8-5.973-12.8-12.8c0-6.827,5.973-12.8,12.8-12.8c6.827,0,12.8,5.973,12.8,12.8
	C264.533,224.426,258.56,230.4,251.733,230.4z M251.733,213.333c-2.56,0-4.267,1.707-4.267,4.267c0,2.56,1.707,4.267,4.267,4.267
	c2.56,0,4.267-1.707,4.267-4.267C256,215.04,254.293,213.333,251.733,213.333z M132.267,230.4c-6.827,0-12.8-5.973-12.8-12.8
	c0-6.827,5.973-12.8,12.8-12.8c6.827,0,12.8,5.973,12.8,12.8C145.067,224.426,139.093,230.4,132.267,230.4z M132.267,213.333
	c-2.56,0-4.267,1.707-4.267,4.267c0,2.56,1.707,4.267,4.267,4.267c2.56,0,4.267-1.707,4.267-4.267
	C136.533,215.04,134.827,213.333,132.267,213.333z M311.467,196.267c-6.827,0-12.8-5.973-12.8-12.8c0-6.827,5.973-12.8,12.8-12.8
	s12.8,5.973,12.8,12.8C324.267,190.293,318.293,196.267,311.467,196.267z M311.467,179.2c-2.56,0-4.267,1.707-4.267,4.267
	c0,2.56,1.707,4.267,4.267,4.267s4.267-1.707,4.267-4.267C315.733,180.907,314.027,179.2,311.467,179.2z M192,196.267
	c-6.827,0-12.8-5.973-12.8-12.8c0-6.827,5.973-12.8,12.8-12.8c6.827,0,12.8,5.973,12.8,12.8
	C204.8,190.293,198.827,196.267,192,196.267z M192,179.2c-2.56,0-4.267,1.707-4.267,4.267c0,2.56,1.707,4.267,4.267,4.267
	s4.267-1.707,4.267-4.267C196.267,180.907,194.56,179.2,192,179.2z M251.733,162.133c-6.827,0-12.8-5.973-12.8-12.8
	c0-6.827,5.973-12.8,12.8-12.8c6.827,0,12.8,5.973,12.8,12.8C264.533,156.16,258.56,162.133,251.733,162.133z M251.733,145.067
	c-2.56,0-4.267,1.707-4.267,4.267c0,2.56,1.707,4.267,4.267,4.267c2.56,0,4.267-1.707,4.267-4.267
	C256,146.773,254.293,145.067,251.733,145.067z"/>
<g>
</g>
<g>
</g>
<g>
</g>
<g>
</g>
<g>
</g>
<g>
</g>
<g>
</g>
<g>
</g>
<g>
</g>
<g>
</g>
<g>
</g>
<g>
</g>
<g>
</g>
<g>
</g>
<g>
</g>
</svg>
